<svg width="222" height="43" viewBox="0 0 222 43" fill="none" xmlns="http://www.w3.org/2000/svg">
<g filter="url(#filter0_d_604_75)">
<path fill-rule="evenodd" clip-rule="evenodd" d="M178.109 12.1757V0.52918L178.112 0.526563C178.475 0.408789 183.273 0.372148 183.99 0.471601C184.089 0.82754 184.108 33.4692 184 33.9586H178.13C178.12 33.5809 178.121 33.206 178.122 32.821V32.8197C178.123 32.4581 178.124 32.0875 178.117 31.6973L178.074 31.7379L178.047 31.763L177.994 31.8124C177.934 31.8681 177.889 31.9102 177.847 31.9564C176.481 33.5032 174.759 34.3119 172.702 34.4009C170.713 34.4873 168.802 34.1549 167.028 33.2179C164.903 32.0978 163.502 30.3442 162.62 28.1432C161.937 26.4394 161.649 24.6571 161.589 22.8355C161.519 20.7077 161.736 18.6114 162.44 16.5857C163.154 14.539 164.293 12.7933 166.086 11.5214C167.339 10.6289 168.737 10.0846 170.255 9.86994C170.946 9.7731 171.647 9.68674 172.343 9.69721C174.479 9.73385 176.358 10.4379 177.887 11.9689C177.923 12.0078 177.963 12.0439 178.03 12.1039L178.033 12.1064L178.109 12.1757ZM175.267 28.842C176.586 28.2583 177.447 27.2219 178.01 25.9238L178.007 25.9264C178.549 24.6806 178.719 23.3642 178.745 21.7075C178.736 21.6133 178.727 21.4972 178.717 21.3652V21.3649L178.717 21.3634V21.3631L178.717 21.3616V21.3613L178.717 21.3598C178.69 20.9932 178.653 20.5054 178.575 20.0246C178.345 18.6218 177.852 17.3289 176.858 16.2664C175.178 14.4736 172.43 14.1935 170.435 15.6304C169.404 16.3737 168.753 17.3944 168.355 18.5826C167.74 20.4172 167.693 22.2938 168.033 24.1834C168.229 25.2747 168.616 26.2928 169.279 27.1958C170.684 29.1089 173.121 29.7894 175.267 28.842ZM50.6778 26.2826C52.0728 20.9147 53.4677 15.5442 54.8679 10.1528V10.1502L56.3348 10.1091C57.7103 10.0704 59.0857 10.0318 60.5054 9.99316L60.0867 11.3061C57.6866 18.8326 55.2999 26.3172 52.9155 33.8018H47.7282C46.3833 28.7727 45.0384 23.7516 43.6935 18.7304L43.6925 18.7267C43.6611 18.7294 43.6271 18.732 43.5931 18.732L42.6382 22.3321C41.6111 26.2041 40.5837 30.0774 39.5547 33.9614H34.3727L33.7204 31.9151C31.4144 24.6813 29.1056 17.4389 26.7881 10.1659H32.7265C34.1215 15.539 35.5164 20.9095 36.9114 26.28C36.9227 26.2808 36.9341 26.282 36.9454 26.2832C36.9681 26.2855 36.9908 26.2878 37.0135 26.2878C37.6831 23.6119 38.3534 20.9353 39.0243 18.2562L39.0343 18.2164C39.7052 15.537 40.3769 12.855 41.0492 10.1685H46.54C47.1326 12.5363 47.7251 14.902 48.3174 17.2668L48.3274 17.307L48.335 17.3373L48.3354 17.3389L48.3358 17.3405C49.0821 20.3202 49.828 23.2983 50.5731 26.2773C50.6072 26.28 50.6438 26.2826 50.6778 26.2826ZM82.2409 12.7657L82.2363 12.7834C82.0072 13.6723 81.7784 14.5599 81.5502 15.447C81.3982 16.0397 81.2473 16.6324 81.0964 17.225L81.0956 17.2281L81.0956 17.2283L81.0955 17.2285L81.0954 17.2287L81.0954 17.229C80.7842 18.4511 80.4732 19.6728 80.1526 20.8933C80.0483 21.2899 79.9461 21.6871 79.8439 22.0844L79.8434 22.0865L79.8433 22.0869C79.4817 23.4927 79.1198 24.8999 78.6608 26.2848C77.9881 23.5728 77.3153 20.8601 76.6425 18.1475L76.6309 18.1006C75.9623 15.4047 75.2937 12.7089 74.6251 10.0137H69.1369C67.8335 15.4653 66.538 20.8907 65.2425 26.3188C65.2085 26.3214 65.1771 26.324 65.143 26.3293C64.6022 24.7868 64.0621 23.2436 63.522 21.7004L63.515 21.6806C62.9779 20.146 62.4407 18.6114 61.903 17.0775H61.8035C61.7544 17.201 61.7025 17.3238 61.6506 17.4465L61.6505 17.4468L61.6505 17.4469L61.6505 17.4469L61.6504 17.447L61.6504 17.4471L61.6504 17.4471L61.6504 17.4472L61.6503 17.4472C61.5363 17.7171 61.4221 17.9871 61.3376 18.2657C61.0411 19.2563 60.7505 20.2492 60.4599 21.242L60.4593 21.2441L60.4592 21.2443C60.2011 22.126 59.9431 23.0076 59.681 23.8874C59.6051 24.1439 59.6077 24.3716 59.6888 24.6281C60.3785 26.8183 61.064 29.0112 61.7494 31.2039L61.7497 31.2051L61.7501 31.2062L61.7522 31.2131C61.9996 32.0044 62.2469 32.7956 62.4944 33.5867C62.5252 33.683 62.566 33.7765 62.6041 33.864L62.6042 33.8641L62.6297 33.9231L62.6436 33.9558H67.7969C68.8369 30.0372 69.8722 26.131 70.9065 22.2289L71.8404 18.7054C71.86 18.7054 71.8808 18.7078 71.9012 18.7102L71.9127 18.7115L71.9294 18.7132C72.6822 21.5549 73.4358 24.3957 74.1894 27.2361C74.785 29.4814 75.3805 31.7264 75.9756 33.9715H81.2597C81.579 33.2831 88.8077 10.3461 88.8155 10.0006H82.9609H82.953C82.7155 10.9241 82.478 11.8455 82.2409 12.7657ZM110.025 15.1089C110.18 14.5005 110.335 13.8924 110.491 13.2852V13.293C110.63 12.7563 110.77 12.2202 110.91 11.6829L110.913 11.669C111.057 11.1183 111.201 10.5664 111.344 10.0111H117.257C117.24 10.0745 117.224 10.1355 117.21 10.1945C117.182 10.3085 117.155 10.4154 117.121 10.5188C116.354 12.8913 115.587 15.2644 114.82 17.6376C114.053 20.0107 113.286 22.3838 112.519 24.7563C112.047 26.214 111.575 27.6723 111.104 29.1306C110.632 30.5891 110.16 32.0477 109.688 33.5056L109.668 33.5685L109.643 33.6463L109.643 33.647C109.589 33.8215 109.561 33.9093 109.502 33.9531C109.441 33.9975 109.348 33.9968 109.16 33.9955C109.125 33.9953 109.086 33.995 109.044 33.995H104.744C104.673 33.995 104.602 33.9907 104.516 33.9856C104.468 33.9827 104.416 33.9795 104.356 33.9767C103.009 28.8889 101.661 23.8011 100.31 18.7132L100.224 18.708C99.3885 21.8549 98.5541 25.0019 97.7183 28.1544C97.2055 30.0883 96.6922 32.0242 96.1777 33.9636H90.9957L90.8822 33.6233L90.8814 33.6207L90.8778 33.6099C90.6535 32.9375 90.4314 32.2715 90.2132 31.6055C89.9917 30.9321 89.7708 30.2585 89.5498 29.5848L89.5481 29.5795C89.0121 27.9457 88.4761 26.3118 87.9336 24.6804C87.8394 24.3952 87.8341 24.1413 87.9283 23.8534C88.2293 22.9243 88.5257 21.9932 88.8221 21.0622C89.1185 20.1311 89.4149 19.2 89.7159 18.2709C89.8467 17.8653 90.03 17.4779 90.2864 17.0775L93.5291 26.3345L93.5364 26.3339C93.5677 26.3315 93.5968 26.3293 93.626 26.3293C94.3778 23.1795 95.1305 20.0298 95.8835 16.8786L95.9002 16.8089C96.4419 14.5422 96.9837 12.2747 97.5256 10.0058H103.009L107.044 26.2743C107.37 25.446 107.587 24.5914 107.804 23.7378C107.861 23.5153 107.918 23.2928 107.976 23.0709C108.164 22.3578 108.348 21.6436 108.531 20.9298C108.629 20.5511 108.726 20.1724 108.824 19.7941C109.101 18.7185 109.379 17.6428 109.654 16.5645C109.778 16.0792 109.902 15.594 110.025 15.1089ZM23.7757 15.9524C22.9984 13.0944 21.2292 11.1681 18.3869 10.2705C17.429 9.96686 16.4423 9.82553 15.4399 9.74178C13.8016 9.60307 12.1972 9.72346 10.6374 10.2521C8.02281 11.1394 6.17769 12.8274 5.30093 15.4891C5.24003 15.6753 5.19648 15.8673 5.15337 16.0573C5.13163 16.1531 5.11 16.2485 5.08632 16.3423C5.84531 16.6041 9.62191 17.3944 9.96738 17.3657C9.99126 17.3142 10.0149 17.2621 10.0387 17.2096L10.0388 17.2095L10.0388 17.2095L10.0388 17.2094L10.0388 17.2094L10.0389 17.2093L10.0389 17.2093C10.0986 17.0778 10.1592 16.9443 10.2265 16.8134C10.6897 15.9314 11.3728 15.2876 12.3333 14.9866C13.7178 14.5522 15.0997 14.6124 16.4449 15.1358C17.3636 15.4944 17.9708 16.1853 18.1461 17.1641C18.2257 17.6143 18.2515 18.0745 18.2771 18.5308C18.2886 18.7351 18.3 18.9386 18.3162 19.1401C18.2651 19.1641 18.2302 19.1823 18.2049 19.1954C18.1667 19.2153 18.1503 19.2239 18.133 19.2239C17.9578 19.2317 17.7826 19.2343 17.6074 19.2369L17.6072 19.237L17.607 19.237C17.0785 19.2459 16.5499 19.2418 16.0213 19.2377C14.7043 19.2275 13.3879 19.2173 12.0768 19.4097C10.5039 19.64 9.00949 20.0954 7.65117 20.9381C6.09394 21.9039 4.97116 23.2177 4.44249 24.9974C4.09179 26.1804 4.06561 27.3764 4.29593 28.5829C4.80628 31.2734 6.32425 33.0871 8.95976 33.9168C10.2893 34.3355 11.6502 34.3722 13.019 34.1733C15.241 33.8514 17.0626 32.8045 18.5047 31.0928C18.545 31.0451 18.5699 30.9833 18.5948 30.9218C18.6054 30.8955 18.6159 30.8693 18.6277 30.8442C18.6695 30.8704 18.714 30.8965 18.7559 30.9201C18.9517 31.8753 19.1474 32.8279 19.3431 33.7805L19.3433 33.7814L19.3448 33.7885H24.1997L24.2041 33.7191L24.2083 33.6566C24.2162 33.5405 24.2232 33.4368 24.2232 33.3331C24.2232 31.816 24.2235 30.299 24.2238 28.7822V28.7819V28.7817V28.7814V28.7811V28.7808C24.2244 25.7479 24.225 22.7155 24.2232 19.6819C24.2232 18.423 24.1081 17.172 23.7757 15.9498V15.9524ZM17.1568 27.4052C16.2931 28.3814 15.1834 28.9258 13.9115 29.1561C13.3148 29.2634 12.7154 29.3236 12.1187 29.1509C11.0352 28.8368 10.3573 27.8789 10.4149 26.7483C10.4856 25.369 11.3283 24.385 12.7207 24.0971C13.1054 24.0159 13.5058 23.9819 13.901 23.9793C14.7909 23.9706 15.6807 23.9735 16.5706 23.9764C17.0155 23.9779 17.4604 23.9793 17.9053 23.9793C17.977 23.9793 18.0488 23.9863 18.1283 23.9941C18.1678 23.998 18.2091 24.002 18.2534 24.0055C18.3529 25.3088 18.01 26.4421 17.1594 27.4078L17.1568 27.4052ZM133.399 10.4641C135.993 11.456 137.55 13.3639 138.252 16.0125L138.254 16.0099C138.558 17.1536 138.678 18.3235 138.678 19.5038V33.3462C138.678 33.4484 138.671 33.5521 138.663 33.6677L138.663 33.6689L138.663 33.6708C138.66 33.7111 138.657 33.7528 138.655 33.7963H133.81C133.611 32.8201 133.415 31.8622 133.206 30.8415C133.19 30.8587 133.175 30.8746 133.16 30.8896C133.135 30.9168 133.112 30.9407 133.091 30.9624L133.09 30.9632L133.089 30.9636C133.038 31.0171 132.999 31.0574 132.962 31.1006C131.52 32.8175 129.694 33.8565 127.474 34.1732C125.742 34.4218 124.043 34.2962 122.436 33.5372C120.382 32.5636 119.209 30.9069 118.788 28.7085C118.513 27.2821 118.547 25.8558 119.078 24.4791C119.633 23.0344 120.607 21.9274 121.889 21.0794C123.111 20.2707 124.467 19.7865 125.901 19.5143C126.998 19.3076 128.107 19.2317 129.225 19.2369C129.986 19.2404 130.745 19.2392 131.519 19.2381H131.519H131.519H131.519H131.519C131.911 19.2375 132.307 19.2369 132.709 19.2369L132.713 19.1297C132.76 18.1284 132.804 17.1558 132.264 16.2638C131.892 15.6461 131.337 15.2588 130.672 15.0363C129.531 14.6568 128.359 14.5992 127.189 14.8636C125.998 15.1331 125.145 15.8529 124.619 16.9547C124.596 16.9994 124.576 17.0451 124.555 17.0912C124.544 17.118 124.532 17.145 124.519 17.1719C124.485 17.2426 124.451 17.3133 124.391 17.4389C123.511 17.2466 122.632 17.0551 121.748 16.8626L121.746 16.8622L121.742 16.8614L121.736 16.8601L121.729 16.8585C121.007 16.7013 120.282 16.5435 119.552 16.3841C119.675 15.599 119.926 14.9028 120.274 14.2433C121.381 12.1417 123.137 10.8383 125.383 10.1605C126.862 9.71292 128.372 9.61347 129.913 9.74171C131.109 9.84378 132.279 10.0348 133.399 10.4641ZM127.241 29.2503C128.147 29.2712 129.008 29.0801 129.83 28.7085H129.832C131.808 27.8134 132.873 26.0835 132.709 24.0342C132.695 24.0287 132.682 24.0234 132.671 24.0184L132.654 24.0105C132.627 23.9982 132.609 23.9897 132.591 23.9897C132.144 23.9905 131.697 23.9888 131.251 23.9872L131.25 23.9872H131.25C130.153 23.9831 129.056 23.979 127.961 24.0106C127.231 24.0316 126.516 24.22 125.885 24.6335C125.014 25.2093 124.648 26.0573 124.747 27.0492C124.867 28.2819 125.995 29.2241 127.241 29.2503ZM204.435 21.6892C203.417 20.8727 202.253 20.3335 201.038 19.8886C200.557 19.713 200.072 19.546 199.587 19.379L199.587 19.3789C198.901 19.1425 198.215 18.9061 197.539 18.6454C197.089 18.4701 196.641 18.2162 196.277 17.9021C195.259 17.028 195.432 15.5545 196.592 14.8924C197.06 14.6254 197.578 14.5129 198.107 14.5626C199.499 14.6935 200.659 15.2902 201.567 16.3606C201.616 16.4174 201.665 16.4733 201.719 16.5356L201.725 16.5417L201.726 16.5433L201.836 16.6694C202.42 16.137 202.999 15.6091 203.578 15.0813L203.582 15.0776L203.6 15.0611C204.172 14.5397 204.743 14.0182 205.32 13.4922C205.311 13.4787 205.302 13.4654 205.293 13.4522C205.276 13.4258 205.259 13.4 205.243 13.3747L205.194 13.2997C205.123 13.1903 205.058 13.0897 204.987 12.9923C203.161 10.4353 199.41 9.06389 196.872 9.4617C194.576 9.82287 192.734 10.8567 191.464 12.8196C189.776 15.4263 189.85 19.831 193.668 21.9379C194.494 22.3935 195.376 22.7559 196.251 23.1153L196.264 23.1208C196.72 23.3073 197.181 23.4763 197.643 23.6454C198.18 23.8418 198.717 24.0383 199.243 24.2619C199.719 24.4634 200.169 24.7566 200.578 25.0759C201.09 25.4763 201.263 26.0521 201.187 26.6985C201.062 27.7821 200.462 28.4835 199.423 28.7713C197.835 29.211 196.4 28.8865 195.157 27.8004C194.461 27.1932 193.982 26.4263 193.59 25.6019C193.522 25.4576 193.452 25.3133 193.374 25.1524L193.31 25.0183L191.742 25.8766C190.701 26.4469 189.66 27.0172 188.591 27.6015C188.646 27.7199 188.697 27.8347 188.747 27.9462C188.848 28.1722 188.944 28.3849 189.054 28.5881C191.281 32.6867 195.822 34.7883 200.457 33.6917C204.103 32.828 206.424 29.9569 206.532 26.2798C206.587 24.4085 205.909 22.8696 204.435 21.6918V21.6892ZM149.909 10.0403V13.7096V13.7122C152.379 10.2287 155.604 8.97505 159.789 10.1292C159.546 11.3869 159.305 12.6238 159.065 13.8567L159.059 13.8897L159.055 13.9102L158.731 15.5756C158.576 15.5121 158.427 15.4446 158.282 15.3787L158.281 15.3781L158.28 15.378C157.971 15.2375 157.677 15.1042 157.368 15.0312C155.583 14.6125 153.994 15.0391 152.644 16.2744C151.654 17.18 151.081 18.3446 150.678 19.6035C150.134 21.2994 149.94 23.0503 149.927 24.8222C149.912 26.8427 149.915 28.8619 149.917 30.8817V30.882V30.8874C149.918 31.6651 149.919 32.4428 149.919 33.2207V33.7834C148.712 33.8783 147.511 33.8981 146.3 33.918C145.54 33.9306 144.776 33.9432 144.004 33.9745V10.0743C144.337 9.96435 149.218 9.93295 149.909 10.0403ZM217.998 30.1637L218 30.1687L218 30.169C218 30.093 218 30.0173 218 29.9416L218 29.9414L218 29.9384C217.999 29.7886 217.998 29.6391 218 29.4885L218 29.4882C217.998 29.6399 217.999 29.7904 218 29.9414" fill="#FF5200"/>
</g>
<defs>
<filter id="filter0_d_604_75" x="0.146484" y="0.414062" width="221.854" height="42" filterUnits="userSpaceOnUse" color-interpolation-filters="sRGB">
<feFlood flood-opacity="0" result="BackgroundImageFix"/>
<feColorMatrix in="SourceAlpha" type="matrix" values="0 0 0 0 0 0 0 0 0 0 0 0 0 0 0 0 0 0 127 0" result="hardAlpha"/>
<feOffset dy="4"/>
<feGaussianBlur stdDeviation="2"/>
<feComposite in2="hardAlpha" operator="out"/>
<feColorMatrix type="matrix" values="0 0 0 0 0 0 0 0 0 0 0 0 0 0 0 0 0 0 0.25 0"/>
<feBlend mode="normal" in2="BackgroundImageFix" result="effect1_dropShadow_604_75"/>
<feBlend mode="normal" in="SourceGraphic" in2="effect1_dropShadow_604_75" result="shape"/>
</filter>
</defs>
</svg>
