<svg width="205" height="205" viewBox="0 0 205 205" fill="none" xmlns="http://www.w3.org/2000/svg">
<path d="M102.8 204.54H102.351C46.1141 204.54 0.36084 158.774 0.36084 102.52V102.07C0.36084 45.8173 46.1141 0.0506592 102.351 0.0506592H102.8C159.037 0.0506592 204.79 45.8173 204.79 102.07V102.52C204.79 158.774 159.037 204.54 102.8 204.54ZM102.351 6.97242C49.9268 6.97242 7.28056 49.6312 7.28056 102.07V102.52C7.28056 154.96 49.9268 197.618 102.351 197.618H102.8C155.224 197.618 197.871 154.96 197.871 102.52V102.07C197.871 49.6312 155.224 6.97242 102.8 6.97242H102.351Z" fill="#FF5200"/>
<path d="M121.83 131.19C96.5519 131.19 75.9865 110.612 75.9796 85.3268C75.9865 78.9173 81.204 73.7051 87.5978 73.7051C88.2552 73.7051 88.9056 73.7605 89.5284 73.8713C90.8985 74.0997 92.1994 74.5634 93.3965 75.2625C93.5695 75.3664 93.6871 75.5326 93.7148 75.7264L96.3858 92.5669C96.4204 92.7677 96.3582 92.9615 96.2267 93.1069C94.7528 94.7404 92.8706 95.9172 90.7739 96.5056L89.7637 96.7893L90.1442 97.7652C93.5902 106.542 100.607 113.554 109.388 117.015L110.364 117.402L110.647 116.392C111.236 114.294 112.412 112.412 114.045 110.937C114.163 110.827 114.322 110.771 114.481 110.771C114.516 110.771 114.55 110.771 114.592 110.778L131.427 113.45C131.628 113.485 131.794 113.595 131.898 113.768C132.59 114.966 133.053 116.274 133.289 117.644C133.399 118.254 133.448 118.897 133.448 119.569C133.448 125.971 128.237 131.183 121.83 131.19Z" fill="#FF5200"/>
<path d="M166.656 96.7476C165.292 81.3398 158.234 67.0464 146.782 56.5046C135.261 45.9004 120.314 40.0585 104.683 40.0585C70.3746 40.0585 42.4605 67.9808 42.4605 102.299C42.4605 113.817 45.6366 125.037 51.6498 134.81L38.2394 164.505L81.1763 159.93C88.6427 162.989 96.545 164.539 104.676 164.539C106.814 164.539 109.007 164.429 111.208 164.2C113.145 163.993 115.104 163.688 117.027 163.3C145.758 157.493 166.732 131.986 166.898 102.631V102.299C166.898 100.43 166.815 98.5611 166.649 96.7546L166.656 96.7476ZM82.8301 146.896L59.0747 149.429L66.1675 133.71L64.7489 131.806C64.6451 131.668 64.5413 131.53 64.4237 131.37C58.2651 122.863 55.0128 112.813 55.0128 102.306C55.0128 74.9095 77.2943 52.6214 104.683 52.6214C130.341 52.6214 152.09 72.6461 154.186 98.2082C154.297 99.5787 154.359 100.956 154.359 102.313C154.359 102.7 154.352 103.081 154.345 103.489C153.82 126.407 137.814 145.871 115.422 150.827C113.713 151.208 111.962 151.499 110.218 151.686C108.405 151.893 106.544 151.997 104.696 151.997C98.1158 151.997 91.722 150.724 85.681 148.204C85.0098 147.934 84.3524 147.643 83.7366 147.346L82.8371 146.91L82.8301 146.896Z" fill="#FF5200"/>
</svg>
